<svg width="1024" height="1024" viewBox="0 0 1024 1024">
    <path
        fill="#E2E2E2"
        d="M640.557 329.26C675.565 326.571 706.121 352.777 708.8 387.785C711.478 422.793 685.264 453.342 650.255 456.01C615.261 458.677 584.727 432.477 582.05 397.483C579.372 362.489 605.564 331.948 640.557 329.26Z"
    />

    <path
        fill="#E2E2E2"
        d="M249.695 594.289C301.748 602.823 343.006 623.881 378.209 663.679C406.428 695.582 422.871 730.076 427.393 772.622C411.946 767.836 397.008 761.538 382.797 753.819C321.48 720.847 269.77 661.347 249.695 594.289Z"
    />

    <path
        fill="#E2E2E2"
        d="M427.411 250.531L428.612 250.472C429.65 252.781 427.487 260.855 426.909 263.637C421.297 290.187 409.685 315.102 392.962 336.474C358.815 380.435 313.205 402.394 258.891 409.241L257.965 409.145L257.606 408.546C262.709 396.435 270.231 381.885 277.047 370.713C311.376 314.129 364.652 271.546 427.411 250.531Z"
    />
    <path
        fill="#E2E2E2"
        d="M758.122 630.681L758.439 630.686L758.845 631.212C758.202 633.489 754.186 641.104 752.773 643.748C720.815 703.542 664.659 751.273 600.127 771.677C599.387 771.536 599.786 771.694 599.028 771.004C599.268 767.869 600.704 764.056 601.621 760.989C622.418 691.494 687.105 641.339 758.122 630.681Z"
    />
</svg>